<svg xmlns="http://www.w3.org/2000/svg" width="120" height="25" viewBox="0 0 120 25" fill="none">
  <g clip-path="url(#clip0_644_403)">
    <path d="M12.1644 23.8435C18.5004 23.8435 23.6364 18.6645 23.6364 12.2755C23.6364 5.88649 18.5004 0.707489 12.1644 0.707489C5.82936 0.707489 0.693359 5.88649 0.693359 12.2755C0.693359 18.6645 5.82936 23.8435 12.1644 23.8435ZM11.9234 22.7875L7.37636 2.93149C7.05936 3.09749 6.75036 3.28049 6.45236 3.47749L11.0444 22.7305C11.3334 22.7615 11.6274 22.7805 11.9234 22.7875ZM10.6044 22.6735C5.58536 21.9135 1.73736 17.5475 1.73736 12.2755C1.73736 11.2855 1.87236 10.3285 2.12636 9.42049L10.6044 22.6735ZM22.5924 12.2755C22.5924 17.5475 18.7444 21.9135 13.7254 22.6735L22.2034 9.42049C22.4564 10.3285 22.5924 11.2855 22.5924 12.2755ZM12.4064 22.7875C12.7024 22.7805 12.9954 22.7615 13.2854 22.7305L17.8774 3.47749C17.5794 3.28049 17.2714 3.09749 16.9524 2.93149L12.4064 22.7875Z" fill="#05AA6C"/>
    <path d="M41.2789 5.95349C40.7639 6.15149 40.1059 6.24949 39.3049 6.24949H34.2089V3.02149H39.3049C40.1059 3.02149 40.7639 3.12849 41.2789 3.34449C41.8139 3.54149 42.0799 3.97149 42.0799 4.63549C42.0799 5.29949 41.8139 5.73849 41.2789 5.95349ZM41.7059 11.8725C41.2259 12.2135 40.4259 12.3835 39.3049 12.3835H34.2089V8.56349H39.3049C40.4259 8.56349 41.2259 8.74249 41.7059 9.10149C42.2049 9.44249 42.4529 9.89949 42.4529 10.4735C42.4529 11.0475 42.2049 11.5135 41.7059 11.8725ZM41.1459 0.922489C40.3809 0.779489 39.5899 0.707489 38.7719 0.707489H30.4209V1.19149C30.9189 1.19149 31.1679 1.35349 31.1679 1.67649V13.8905C31.1679 14.2135 30.9189 14.3745 30.4209 14.3745V14.8585H40.2129C41.0479 14.8585 41.7949 14.7695 42.4529 14.5895C43.1109 14.3925 43.6629 14.1235 44.1069 13.7825C44.5699 13.4415 44.9169 13.0475 45.1479 12.5985C45.3789 12.1325 45.4949 11.6305 45.4949 11.0925C45.4949 10.0695 45.2019 9.28949 44.6149 8.75149C44.0449 8.19549 43.3429 7.79249 42.5069 7.54149V7.48749C43.2179 7.23649 43.8319 6.88649 44.3479 6.43749C44.8629 5.97149 45.1219 5.31749 45.1219 4.47449C45.1219 3.77449 44.9439 3.19149 44.5879 2.72549C44.2319 2.24149 43.7609 1.85549 43.1739 1.56849C42.5869 1.26349 41.9109 1.04849 41.1459 0.922489ZM58.0529 5.01249C58.6039 5.01249 58.8799 5.18249 58.8799 5.52349H59.3599V2.53749H58.8799C58.8799 2.85949 58.6039 3.02149 58.0529 3.02149H48.5809V3.50549C48.6699 3.50549 48.7589 3.54149 48.8479 3.61349C48.9369 3.66649 48.9819 3.76549 48.9819 3.90949V13.9715C48.9819 14.1145 48.9369 14.2225 48.8479 14.2935C48.7589 14.3475 48.6699 14.3745 48.5809 14.3745V14.8585H58.3729C58.5859 14.8585 58.7639 14.8675 58.9059 14.8855C59.0479 14.9035 59.1199 14.9935 59.1199 15.1545H59.5999V12.3295H59.1199C59.1199 12.4915 59.0479 12.6255 58.9059 12.7335C58.7639 12.8235 58.5859 12.8685 58.3729 12.8685H51.5429V9.69349H55.4379C55.7939 9.69349 56.0689 9.72049 56.2649 9.77449C56.4599 9.80949 56.5319 9.92649 56.4789 10.1235H57.0119V7.27149H56.5319C56.5319 7.46949 56.4599 7.59449 56.3179 7.64849C56.1759 7.68449 55.9539 7.70249 55.6509 7.70249H51.5429V5.01249H58.0529ZM69.4619 9.90849L67.3009 5.38849L65.4069 9.90849H69.4619ZM60.5509 14.3745C60.7649 14.3385 60.9339 14.2405 61.0589 14.0785C61.2009 13.8995 61.3069 13.7375 61.3789 13.5945L65.3539 4.85049C65.4599 4.59949 65.5409 4.40249 65.5939 4.25849C65.6649 4.09749 65.6999 3.94449 65.6999 3.80149C65.6999 3.69349 65.6739 3.63149 65.6209 3.61349C65.5849 3.57749 65.5409 3.54149 65.4869 3.50549V3.02149H69.5159V3.50549C69.4619 3.54149 69.3999 3.56849 69.3289 3.58649C69.2759 3.60449 69.2489 3.67549 69.2489 3.80149C69.2489 3.90949 69.2839 4.04349 69.3559 4.20549C69.4449 4.34849 69.5339 4.51849 69.6219 4.71649L73.9439 13.8635C74.0329 14.0245 74.1309 14.1415 74.2379 14.2135C74.3449 14.2845 74.4599 14.3385 74.5849 14.3745V14.8585H70.7959V14.4555C70.8849 14.4555 70.9739 14.4285 71.0629 14.3745C71.1699 14.3205 71.2229 14.2225 71.2229 14.0785C71.2229 13.9715 71.2049 13.8725 71.1699 13.7825C71.1339 13.6935 71.0899 13.5765 71.0359 13.4325L70.3159 11.8995H64.6069L63.8589 13.3525C63.7889 13.4955 63.7259 13.6305 63.6729 13.7555C63.6369 13.8635 63.6189 13.9625 63.6189 14.0515C63.6189 14.1955 63.6639 14.2845 63.7529 14.3205C63.8419 14.3565 63.9659 14.3745 64.1269 14.3745V14.8585H60.5509V14.3745ZM85.3279 6.30349C85.3449 6.33949 85.3539 6.37549 85.3539 6.41149L85.6479 6.62649L87.4089 4.07049L87.0889 3.88249C87.0169 3.91849 86.9459 3.96249 86.8749 4.01649C86.8209 4.07049 86.7509 4.09749 86.6619 4.09749C86.5369 4.09749 86.3329 4.03449 86.0479 3.90949C85.7639 3.78349 85.4069 3.64049 84.9809 3.47849C84.5539 3.31749 84.0559 3.17349 83.4869 3.04849C82.9359 2.92249 82.3219 2.85949 81.6459 2.85949C80.7739 2.85949 79.9209 2.98549 79.0839 3.23649C78.2669 3.48749 77.5369 3.87349 76.8969 4.39349C76.2559 4.89549 75.7409 5.52349 75.3499 6.27649C74.9589 7.02949 74.7629 7.90849 74.7629 8.91349C74.7629 9.91749 74.9589 10.8055 75.3499 11.5765C75.7409 12.3295 76.2479 12.9665 76.8699 13.4865C77.4929 13.9885 78.2039 14.3565 79.0049 14.5895C79.8049 14.8225 80.6149 14.9395 81.4319 14.9395C82.2329 14.9395 82.9529 14.8675 83.5939 14.7245C84.2519 14.5805 84.8209 14.4105 85.3009 14.2135C85.7989 13.9975 86.2079 13.8095 86.5279 13.6485C86.8489 13.4865 87.0799 13.4065 87.2219 13.4065C87.3109 13.4065 87.4619 13.4505 87.6749 13.5405L87.9419 13.4065L85.9679 10.5545L85.6749 10.8235C85.6919 10.8955 85.7009 10.9845 85.7009 11.0925V11.3075C85.7009 11.4685 85.5679 11.6485 85.3009 11.8455C85.0519 12.0425 84.7229 12.2315 84.3139 12.4105C83.9049 12.5725 83.4509 12.7155 82.9529 12.8415C82.4559 12.9665 81.9659 13.0295 81.4859 13.0295C80.9699 13.0295 80.4629 12.9395 79.9649 12.7605C79.4669 12.5635 79.0229 12.2855 78.6309 11.9265C78.2399 11.5495 77.9199 11.1105 77.6699 10.6085C77.4389 10.0875 77.3239 9.50549 77.3239 8.85949C77.3239 8.21349 77.4299 7.63949 77.6439 7.13749C77.8569 6.63549 78.1599 6.21349 78.5509 5.87349C78.9419 5.53249 79.3959 5.28149 79.9119 5.11949C80.4449 4.94049 81.0319 4.85049 81.6729 4.85049C82.2059 4.85049 82.6959 4.90449 83.1399 5.01249C83.5849 5.10149 83.9669 5.21849 84.2869 5.36149C84.6249 5.50549 84.8829 5.65749 85.0609 5.81949C85.2389 5.96249 85.3279 6.07949 85.3279 6.16849V6.30349ZM95.8039 4.85049C95.2349 4.85049 94.6739 4.94949 94.1229 5.14649C93.5889 5.32649 93.1089 5.59549 92.6829 5.95349C92.2559 6.29449 91.9079 6.71649 91.6419 7.21849C91.3919 7.72049 91.2689 8.29449 91.2689 8.94049C91.2689 9.58549 91.3919 10.1595 91.6419 10.6615C91.9079 11.1645 92.2559 11.5945 92.6829 11.9535C93.1089 12.2945 93.5889 12.5635 94.1229 12.7605C94.6739 12.9395 95.2349 13.0295 95.8039 13.0295C96.3729 13.0295 96.9249 12.9395 97.4579 12.7605C98.0099 12.5635 98.4979 12.2945 98.9249 11.9535C99.3519 11.5945 99.6899 11.1645 99.9389 10.6615C100.206 10.1595 100.339 9.58549 100.339 8.94049C100.339 8.29449 100.206 7.72049 99.9389 7.21849C99.6899 6.71649 99.3519 6.29449 98.9249 5.95349C98.4979 5.59549 98.0099 5.32649 97.4579 5.14649C96.9249 4.94949 96.3729 4.85049 95.8039 4.85049ZM95.8039 2.85949C96.7819 2.85949 97.6979 2.98549 98.5519 3.23649C99.4239 3.48749 100.179 3.86449 100.819 4.36649C101.46 4.86849 101.967 5.50549 102.34 6.27649C102.714 7.02949 102.9 7.91749 102.9 8.94049C102.9 9.96249 102.714 10.8595 102.34 11.6305C101.967 12.3835 101.46 13.0115 100.819 13.5135C100.179 14.0155 99.4239 14.3835 98.5519 14.6165C97.6979 14.8315 96.7819 14.9395 95.8039 14.9395C94.8249 14.9395 93.9009 14.8315 93.0289 14.6165C92.1749 14.3835 91.4279 14.0155 90.7879 13.5135C90.1479 13.0115 89.6409 12.3835 89.2669 11.6305C88.8929 10.8595 88.7069 9.96249 88.7069 8.94049C88.7069 7.91749 88.8929 7.02949 89.2669 6.27649C89.6409 5.50549 90.1479 4.86849 90.7879 4.36649C91.4279 3.86449 92.1749 3.48749 93.0289 3.23649C93.9009 2.98549 94.8249 2.85949 95.8039 2.85949ZM105.551 13.9715C105.551 14.2405 105.39 14.3745 105.07 14.3745V14.8585H108.352V14.3745C107.978 14.3745 107.791 14.2405 107.791 13.9715V6.14249L114.408 13.2445C114.621 13.4775 114.808 13.6845 114.968 13.8635C115.146 14.0425 115.235 14.1685 115.235 14.2405C115.235 14.3295 115.173 14.3745 115.048 14.3745V14.8585H118.517V14.3745C118.197 14.3745 118.037 14.2405 118.037 13.9715V3.90949C118.037 3.64049 118.197 3.50549 118.517 3.50549V3.02149H115.262V3.50549C115.617 3.50549 115.795 3.64049 115.795 3.90949V11.1995L109.392 4.36649C109.001 3.97149 108.806 3.72949 108.806 3.64049C108.806 3.56849 108.868 3.52349 108.992 3.50549V3.02149H105.07V3.50549C105.39 3.50549 105.551 3.64049 105.551 3.90949V13.9715ZM70.9299 21.6465L71.0529 21.7095C71.0529 21.7835 71.0699 21.8505 71.1029 21.9085C71.1599 22.0085 71.2719 22.1075 71.4369 22.2075C71.6099 22.2995 71.8029 22.3825 72.0179 22.4565C72.2399 22.5315 72.4709 22.5945 72.7089 22.6435C72.9489 22.6855 73.1629 22.7065 73.3529 22.7065C73.4929 22.7065 73.6739 22.6975 73.8969 22.6815C74.1189 22.6565 74.3369 22.6105 74.5509 22.5445C74.7649 22.4775 74.9509 22.3865 75.1079 22.2695C75.2639 22.1535 75.3419 21.9995 75.3419 21.8085C75.3419 21.6175 75.2679 21.4765 75.1199 21.3845C74.9799 21.2935 74.7909 21.2275 74.5509 21.1855C74.3209 21.1435 74.0529 21.1195 73.7479 21.1105C73.4509 21.0945 73.1459 21.0735 72.8329 21.0485C72.5199 21.0235 72.2109 20.9815 71.9069 20.9235C71.6099 20.8655 71.3419 20.7705 71.1029 20.6375C70.8719 20.4955 70.6829 20.3085 70.5349 20.0765C70.3949 19.8355 70.3239 19.5235 70.3239 19.1415C70.3239 18.8835 70.3819 18.6305 70.4969 18.3815C70.6209 18.1315 70.8059 17.9115 71.0529 17.7205C71.2999 17.5295 71.6139 17.3755 71.9929 17.2595C72.3719 17.1345 72.8169 17.0725 73.3279 17.0725C73.7639 17.0725 74.1439 17.1055 74.4649 17.1725C74.7859 17.2385 75.0619 17.3095 75.2929 17.3835C75.5319 17.4585 75.7299 17.5295 75.8859 17.5955C76.0509 17.6625 76.1869 17.6955 76.2939 17.6955C76.4099 17.6955 76.4919 17.6705 76.5409 17.6205L76.6899 17.7205L75.8369 19.2785L75.7129 19.2285C75.6969 19.1125 75.6639 19.0165 75.6139 18.9415C75.5489 18.8425 75.4369 18.7465 75.2809 18.6555C75.1319 18.5555 74.9549 18.4685 74.7489 18.3935C74.5429 18.3185 74.3209 18.2605 74.0809 18.2195C73.8429 18.1695 73.6039 18.1445 73.3649 18.1445C73.1829 18.1445 72.9939 18.1605 72.7959 18.1945C72.6069 18.2195 72.4339 18.2605 72.2769 18.3185C72.1209 18.3765 71.9879 18.4555 71.8809 18.5555C71.7829 18.6475 71.7329 18.7635 71.7329 18.9045C71.7329 19.1045 71.8029 19.2535 71.9439 19.3535C72.0909 19.4535 72.2809 19.5275 72.5119 19.5775C72.7509 19.6275 73.0189 19.6605 73.3159 19.6775C73.6199 19.6945 73.9299 19.7145 74.2419 19.7395C74.5549 19.7645 74.8609 19.8105 75.1569 19.8765C75.4619 19.9345 75.7299 20.0345 75.9599 20.1755C76.1999 20.3085 76.3889 20.4915 76.5289 20.7245C76.6769 20.9575 76.7509 21.2605 76.7509 21.6345C76.7509 22.0665 76.6359 22.4195 76.4049 22.6935C76.1829 22.9675 75.9029 23.1835 75.5649 23.3415C75.2269 23.4995 74.8609 23.6075 74.4649 23.6655C74.0769 23.7155 73.7149 23.7405 73.3769 23.7405C72.9079 23.7405 72.5119 23.7155 72.1909 23.6655C71.8769 23.6075 71.6139 23.5415 71.3999 23.4665C71.1929 23.3835 71.0289 23.3125 70.9049 23.2545C70.7819 23.1885 70.6749 23.1545 70.5839 23.1545C70.5259 23.1545 70.4719 23.1885 70.4229 23.2545L70.2499 23.1545L70.9299 21.6465ZM34.9209 19.8895C35.1919 19.8895 35.4229 19.8355 35.6119 19.7275C35.8099 19.6195 35.9089 19.4075 35.9089 19.0915C35.9089 18.7755 35.8099 18.5635 35.6119 18.4555C35.4229 18.3475 35.1919 18.2935 34.9209 18.2935H32.2869V19.8895H34.9209ZM30.4209 23.7035V23.4785C30.7259 23.4785 30.8789 23.4045 30.8789 23.2545V17.5955C30.8789 17.4465 30.7259 17.3715 30.4209 17.3715V17.1475H34.7719C35.5629 17.1475 36.1849 17.2965 36.6379 17.5955C37.0909 17.8865 37.3179 18.3855 37.3179 19.0915C37.3179 19.7975 37.0909 20.3005 36.6379 20.5995C36.1849 20.8905 35.5629 21.0355 34.7719 21.0355H32.2869V23.2545C32.2869 23.4045 32.4199 23.4785 32.6829 23.4785V23.7035H30.4209ZM40.8779 19.0665C40.6139 19.0665 40.3549 19.1125 40.0989 19.2035C39.8519 19.2865 39.6299 19.4115 39.4309 19.5775C39.2339 19.7355 39.0729 19.9305 38.9499 20.1635C38.8339 20.3965 38.7769 20.6625 38.7769 20.9615C38.7769 21.2605 38.8339 21.5265 38.9499 21.7585C39.0729 21.9915 39.2339 22.1915 39.4309 22.3575C39.6299 22.5155 39.8519 22.6395 40.0989 22.7315C40.3549 22.8145 40.6139 22.8555 40.8779 22.8555C41.1419 22.8555 41.3969 22.8145 41.6439 22.7315C41.8999 22.6395 42.1259 22.5155 42.3239 22.3575C42.5219 22.1915 42.6779 21.9915 42.7939 21.7585C42.9169 21.5265 42.9789 21.2605 42.9789 20.9615C42.9789 20.6625 42.9169 20.3965 42.7939 20.1635C42.6779 19.9305 42.5219 19.7355 42.3239 19.5775C42.1259 19.4115 41.8999 19.2865 41.6439 19.2035C41.3969 19.1125 41.1419 19.0665 40.8779 19.0665ZM40.8779 18.1445C41.3309 18.1445 41.7549 18.2025 42.1509 18.3185C42.5549 18.4355 42.9049 18.6095 43.2019 18.8425C43.4979 19.0745 43.7329 19.3695 43.9059 19.7275C44.0789 20.0765 44.1659 20.4875 44.1659 20.9615C44.1659 21.4345 44.0789 21.8505 43.9059 22.2075C43.7329 22.5565 43.4979 22.8475 43.2019 23.0805C42.9049 23.3125 42.5549 23.4835 42.1509 23.5915C41.7549 23.6905 41.3309 23.7405 40.8779 23.7405C40.4249 23.7405 39.9959 23.6905 39.5919 23.5915C39.1969 23.4835 38.8499 23.3125 38.5539 23.0805C38.2579 22.8475 38.0219 22.5565 37.8489 22.2075C37.6769 21.8505 37.5899 21.4345 37.5899 20.9615C37.5899 20.4875 37.6769 20.0765 37.8489 19.7275C38.0219 19.3695 38.2579 19.0745 38.5539 18.8425C38.8499 18.6095 39.1969 18.4355 39.5919 18.3185C39.9959 18.2025 40.4249 18.1445 40.8779 18.1445ZM45.6529 18.6175C45.6529 18.5015 45.7059 18.4435 45.8139 18.4435V18.2195H44.2439V18.4435C44.3679 18.4685 44.4539 18.5475 44.5039 18.6805L46.1349 23.0055C46.1509 23.0465 46.1719 23.1095 46.1969 23.1925C46.2299 23.2675 46.2469 23.3295 46.2469 23.3795C46.2469 23.4295 46.2339 23.4585 46.2099 23.4665C46.1839 23.4745 46.1559 23.4785 46.1229 23.4785V23.7035H47.6429V23.4785C47.5689 23.4785 47.5189 23.4665 47.4949 23.4415C47.4699 23.4165 47.4579 23.3705 47.4579 23.3045C47.4579 23.2795 47.4859 23.1885 47.5439 23.0305C47.6099 22.8645 47.6889 22.6645 47.7789 22.4315C47.8779 22.1915 47.9809 21.9335 48.0879 21.6595C48.2029 21.3765 48.3099 21.1105 48.4099 20.8615C48.5079 20.6035 48.5939 20.3795 48.6689 20.1885C48.7429 19.9895 48.7879 19.8515 48.8049 19.7775H48.8299C48.9609 20.1925 49.0979 20.6035 49.2379 21.0115C49.3779 21.4185 49.5049 21.7875 49.6209 22.1205C49.7449 22.4445 49.8429 22.7145 49.9169 22.9305C49.9919 23.1465 50.0289 23.2715 50.0289 23.3045C50.0289 23.3705 50.0199 23.4165 50.0039 23.4415C49.9869 23.4585 49.9459 23.4705 49.8799 23.4785V23.7035H51.6109V23.4785C51.4949 23.4785 51.4379 23.4245 51.4379 23.3165C51.4379 23.2755 51.4619 23.2005 51.5119 23.0925C51.5609 22.9765 51.6109 22.8475 51.6599 22.7065L53.0809 18.9045C53.1889 18.5975 53.3119 18.4435 53.4519 18.4435V18.2195H51.8819V18.4435C52.0149 18.4435 52.0799 18.5015 52.0799 18.6175C52.0799 18.6765 52.0639 18.7505 52.0309 18.8425C52.0059 18.9255 51.9729 19.0255 51.9319 19.1415L50.7829 22.1705L49.6949 19.1665C49.6539 19.0665 49.6119 18.9625 49.5709 18.8545C49.5299 18.7385 49.5089 18.6515 49.5089 18.5935C49.5089 18.4935 49.5839 18.4435 49.7319 18.4435V18.2195H47.9639V18.4435C48.0959 18.4435 48.1619 18.5015 48.1619 18.6175C48.1619 18.6845 48.1419 18.7715 48.0999 18.8795C48.0669 18.9795 48.0299 19.0875 47.9889 19.2035L46.9379 22.1705H46.9139L45.8259 19.1415C45.7769 19.0085 45.7359 18.9005 45.7029 18.8175C45.6689 18.7255 45.6529 18.6595 45.6529 18.6175ZM58.8329 19.3785C58.8329 19.2205 58.7049 19.1415 58.4499 19.1415H55.4339V20.3875H57.3369C57.4769 20.3875 57.5799 20.3795 57.6459 20.3625C57.7129 20.3385 57.7459 20.2795 57.7459 20.1885H57.9679V21.5095H57.7199C57.7459 21.4185 57.7129 21.3645 57.6219 21.3475C57.5309 21.3225 57.4029 21.3105 57.2389 21.3105H55.4339V22.7805H58.5979C58.6969 22.7805 58.7789 22.7605 58.8449 22.7185C58.9109 22.6685 58.9439 22.6065 58.9439 22.5315H59.1669V23.8405H58.9439C58.9439 23.7655 58.9109 23.7245 58.8449 23.7155C58.7789 23.7075 58.6969 23.7035 58.5979 23.7035H54.0619V23.4785C54.1029 23.4785 54.1439 23.4665 54.1849 23.4415C54.2269 23.4085 54.2479 23.3585 54.2479 23.2915V18.6305C54.2479 18.5635 54.2269 18.5185 54.1849 18.4935C54.1439 18.4605 54.1029 18.4435 54.0619 18.4435V18.2195H58.4499C58.7049 18.2195 58.8329 18.1445 58.8329 17.9945H59.0549V19.3785H58.8329ZM64.8609 19.8145C64.8609 20.3295 64.4569 20.5875 63.6489 20.5875H61.6959V19.1415H63.6489C64.0689 19.1415 64.3749 19.2035 64.5639 19.3285C64.7619 19.4445 64.8609 19.6065 64.8609 19.8145ZM65.3919 18.5935C64.9799 18.3435 64.4069 18.2195 63.6739 18.2195H60.2629V18.4435C60.4109 18.4435 60.4849 18.5055 60.4849 18.6305V23.2915C60.4849 23.4165 60.4109 23.4785 60.2629 23.4785V23.7035H61.9059V23.4785C61.8569 23.4785 61.8029 23.4665 61.7459 23.4415C61.6959 23.4085 61.6719 23.3585 61.6719 23.2915V21.5095H63.3899L64.3659 22.9805C64.4899 23.1545 64.5519 23.2835 64.5519 23.3665C64.5519 23.4415 64.4979 23.4785 64.3909 23.4785V23.7035H66.2819V23.4785C66.1919 23.4545 66.1049 23.4205 66.0219 23.3795C65.9479 23.3295 65.8779 23.2585 65.8119 23.1675L64.6009 21.3845C64.7739 21.3435 64.9429 21.2855 65.1079 21.2105C65.2729 21.1275 65.4209 21.0235 65.5529 20.8985C65.6929 20.7655 65.8039 20.6125 65.8869 20.4375C65.9689 20.2635 66.0099 20.0635 66.0099 19.8395C66.0099 19.2495 65.8039 18.8335 65.3919 18.5935ZM82.4119 19.1415C82.6679 19.1415 82.7959 19.2205 82.7959 19.3785H83.0179V17.9945H82.7959C82.7959 18.1445 82.6679 18.2195 82.4119 18.2195H78.0249V18.4435C78.0659 18.4435 78.1069 18.4605 78.1479 18.4935C78.1889 18.5185 78.2099 18.5635 78.2099 18.6305V23.2915C78.2099 23.3585 78.1889 23.4085 78.1479 23.4415C78.1069 23.4665 78.0659 23.4785 78.0249 23.4785V23.7035H82.5609C82.6599 23.7035 82.7419 23.7075 82.8079 23.7155C82.8739 23.7245 82.9069 23.7655 82.9069 23.8405H83.1299V22.5315H82.9069C82.9069 22.6065 82.8739 22.6685 82.8079 22.7185C82.7419 22.7605 82.6599 22.7805 82.5609 22.7805H79.3969V21.3105H81.2009C81.3659 21.3105 81.4939 21.3225 81.5839 21.3475C81.6749 21.3645 81.7079 21.4185 81.6829 21.5095H81.9309V20.1885H81.7079C81.7079 20.2795 81.6749 20.3385 81.6089 20.3625C81.5429 20.3795 81.4399 20.3875 81.2999 20.3875H79.3969V19.1415H82.4119ZM87.6119 20.5875C88.4199 20.5875 88.8229 20.3295 88.8229 19.8145C88.8229 19.6065 88.7249 19.4445 88.5269 19.3285C88.3369 19.2035 88.0319 19.1415 87.6119 19.1415H85.6589V20.5875H87.6119ZM87.6369 18.2195C88.3699 18.2195 88.9419 18.3435 89.3549 18.5935C89.7669 18.8335 89.9729 19.2495 89.9729 19.8395C89.9729 20.0635 89.9319 20.2635 89.8489 20.4375C89.7669 20.6125 89.6559 20.7655 89.5159 20.8985C89.3829 21.0235 89.2349 21.1275 89.0709 21.2105C88.9049 21.2855 88.7369 21.3435 88.5639 21.3845L89.7749 23.1675C89.8409 23.2585 89.9109 23.3295 89.9849 23.3795C90.0669 23.4205 90.1539 23.4545 90.2439 23.4785V23.7035H88.3539V23.4785C88.4609 23.4785 88.5139 23.4415 88.5139 23.3665C88.5139 23.2835 88.4519 23.1545 88.3289 22.9805L87.3529 21.5095H85.6339V23.2915C85.6339 23.3585 85.6589 23.4085 85.7079 23.4415C85.7659 23.4665 85.8199 23.4785 85.8689 23.4785V23.7035H84.2249V23.4785C84.3739 23.4785 84.4479 23.4165 84.4479 23.2915V18.6305C84.4479 18.5055 84.3739 18.4435 84.2249 18.4435V18.2195H87.6369ZM96.4659 18.7305C96.5559 18.5395 96.6599 18.4435 96.7749 18.4435V18.2195H95.1559V18.4435C95.2709 18.4435 95.3329 18.4935 95.3409 18.5935C95.3499 18.6515 95.3289 18.7305 95.2799 18.8295C95.2299 18.9295 95.1599 19.0795 95.0699 19.2785L93.7219 22.2945L92.2999 19.1915C92.2429 19.0665 92.1889 18.9545 92.1399 18.8545C92.0989 18.7465 92.0779 18.6635 92.0779 18.6055C92.0779 18.4975 92.1269 18.4435 92.2259 18.4435V18.2195H90.4839V18.4435C90.5329 18.4435 90.5829 18.4645 90.6319 18.5055C90.6899 18.5475 90.7349 18.6055 90.7679 18.6805L92.6469 22.7565C92.7209 22.9135 92.7829 23.0385 92.8319 23.1295C92.8899 23.2215 92.9179 23.2875 92.9179 23.3295C92.9179 23.3705 92.8979 23.4045 92.8569 23.4295C92.8239 23.4455 92.7869 23.4625 92.7459 23.4785V23.7035H94.6119V23.4785C94.4629 23.4545 94.3889 23.4165 94.3889 23.3665C94.3889 23.3255 94.4099 23.2675 94.4509 23.1925C94.4999 23.1175 94.5699 22.9725 94.6609 22.7565L96.4659 18.7305ZM97.5619 23.4785C97.6939 23.4785 97.7839 23.4665 97.8339 23.4415C97.8839 23.4085 97.9079 23.3585 97.9079 23.2915V18.6305C97.9079 18.5635 97.8839 18.5185 97.8339 18.4935C97.7839 18.4605 97.6939 18.4435 97.5619 18.4435V18.2195H99.4399V18.4435C99.2099 18.4435 99.0949 18.5055 99.0949 18.6305V23.2915C99.0949 23.4165 99.2099 23.4785 99.4399 23.4785V23.7035H97.5619V23.4785ZM105.238 19.7395C105.246 19.7565 105.25 19.7725 105.25 19.7895L105.386 19.8895L106.202 18.7055L106.053 18.6175C106.02 18.6345 105.987 18.6555 105.955 18.6805C105.93 18.7055 105.897 18.7175 105.856 18.7175C105.798 18.7175 105.703 18.6885 105.572 18.6305C105.439 18.5725 105.275 18.5055 105.077 18.4315C104.879 18.3565 104.648 18.2895 104.385 18.2315C104.13 18.1735 103.845 18.1445 103.532 18.1445C103.128 18.1445 102.732 18.2025 102.345 18.3185C101.967 18.4355 101.629 18.6135 101.332 18.8545C101.035 19.0875 100.796 19.3785 100.615 19.7275C100.434 20.0765 100.343 20.4835 100.343 20.9485C100.343 21.4145 100.434 21.8255 100.615 22.1825C100.796 22.5315 101.031 22.8265 101.32 23.0675C101.608 23.3005 101.937 23.4705 102.308 23.5785C102.679 23.6865 103.054 23.7405 103.433 23.7405C103.804 23.7405 104.138 23.7075 104.434 23.6405C104.739 23.5745 105.003 23.4955 105.225 23.4045C105.456 23.3045 105.646 23.2175 105.794 23.1425C105.943 23.0675 106.05 23.0305 106.116 23.0305C106.157 23.0305 106.227 23.0515 106.326 23.0925L106.449 23.0305L105.535 21.7095L105.399 21.8335C105.406 21.8665 105.411 21.9085 105.411 21.9585V22.0585C105.411 22.1325 105.349 22.2155 105.225 22.3075C105.11 22.3985 104.958 22.4865 104.768 22.5695C104.578 22.6435 104.368 22.7105 104.138 22.7685C103.907 22.8265 103.68 22.8555 103.458 22.8555C103.219 22.8555 102.984 22.8145 102.753 22.7315C102.522 22.6395 102.317 22.5105 102.135 22.3445C101.954 22.1705 101.806 21.9665 101.69 21.7335C101.583 21.4925 101.53 21.2225 101.53 20.9235C101.53 20.6245 101.579 20.3585 101.678 20.1265C101.777 19.8935 101.917 19.6985 102.098 19.5405C102.28 19.3825 102.49 19.2665 102.729 19.1915C102.976 19.1085 103.248 19.0665 103.544 19.0665C103.792 19.0665 104.018 19.0915 104.224 19.1415C104.43 19.1825 104.607 19.2365 104.755 19.3035C104.912 19.3695 105.032 19.4405 105.114 19.5155C105.196 19.5815 105.238 19.6355 105.238 19.6775V19.7395ZM111.982 19.3785C111.982 19.2205 111.855 19.1415 111.599 19.1415H108.583V20.3875H110.487C110.627 20.3875 110.73 20.3795 110.796 20.3625C110.862 20.3385 110.894 20.2795 110.894 20.1885H111.117V21.5095H110.87C110.894 21.4185 110.862 21.3645 110.771 21.3475C110.68 21.3225 110.553 21.3105 110.388 21.3105H108.583V22.7805H111.748C111.846 22.7805 111.929 22.7605 111.995 22.7185C112.061 22.6685 112.094 22.6065 112.094 22.5315H112.316V23.8405H112.094C112.094 23.7655 112.061 23.7245 111.995 23.7155C111.929 23.7075 111.846 23.7035 111.748 23.7035H107.211V23.4785C107.252 23.4785 107.294 23.4665 107.335 23.4415C107.376 23.4085 107.397 23.3585 107.397 23.2915V18.6305C107.397 18.5635 107.376 18.5185 107.335 18.4935C107.294 18.4605 107.252 18.4435 107.211 18.4435V18.2195H111.599C111.855 18.2195 111.982 18.1445 111.982 17.9945H112.205V19.3785H111.982ZM113.808 21.9085C113.816 21.8665 113.82 21.8295 113.82 21.7965L113.585 21.7335L113.016 23.1295L113.19 23.2545C113.231 23.2045 113.28 23.1795 113.338 23.1795C113.371 23.1795 113.466 23.2135 113.622 23.2795C113.778 23.3375 113.968 23.4045 114.191 23.4785C114.422 23.5455 114.673 23.6075 114.945 23.6655C115.225 23.7155 115.505 23.7405 115.785 23.7405C116.065 23.7405 116.362 23.7195 116.675 23.6785C116.996 23.6365 117.289 23.5495 117.553 23.4165C117.816 23.2835 118.034 23.1005 118.208 22.8685C118.389 22.6355 118.48 22.3365 118.48 21.9705C118.48 21.6055 118.377 21.3185 118.171 21.1105C117.973 20.9035 117.722 20.7455 117.417 20.6375C117.112 20.5295 116.782 20.4545 116.428 20.4125C116.074 20.3625 115.744 20.3175 115.439 20.2755C115.134 20.2255 114.879 20.1635 114.673 20.0885C114.475 20.0055 114.376 19.8725 114.376 19.6895C114.376 19.5735 114.409 19.4775 114.475 19.4035C114.541 19.3205 114.632 19.2535 114.747 19.2035C114.862 19.1535 114.994 19.1205 115.143 19.1045C115.29 19.0795 115.447 19.0665 115.612 19.0665C116.041 19.0665 116.428 19.1165 116.774 19.2165C117.12 19.3155 117.376 19.4365 117.54 19.5775C117.606 19.6275 117.643 19.6775 117.652 19.7275L117.676 19.8765L117.899 19.9515L118.517 18.7795L118.381 18.6425C118.331 18.6675 118.29 18.6925 118.257 18.7175C118.224 18.7345 118.175 18.7425 118.109 18.7425C118.051 18.7425 117.96 18.7135 117.837 18.6555C117.722 18.5885 117.569 18.5185 117.38 18.4435C117.19 18.3685 116.955 18.3025 116.675 18.2445C116.403 18.1775 116.074 18.1445 115.686 18.1445C114.895 18.1445 114.281 18.3025 113.844 18.6175C113.408 18.9335 113.19 19.3575 113.19 19.8895C113.19 20.2465 113.288 20.5245 113.486 20.7245C113.692 20.9155 113.948 21.0655 114.252 21.1735C114.558 21.2725 114.887 21.3475 115.241 21.3975C115.596 21.4385 115.925 21.4845 116.23 21.5345C116.535 21.5765 116.786 21.6385 116.984 21.7215C117.19 21.8045 117.293 21.9375 117.293 22.1205C117.293 22.2785 117.236 22.4075 117.12 22.5065C117.005 22.5985 116.865 22.6725 116.7 22.7315C116.535 22.7805 116.366 22.8145 116.193 22.8305C116.028 22.8475 115.888 22.8555 115.773 22.8555C115.65 22.8555 115.476 22.8355 115.253 22.7935C115.039 22.7515 114.821 22.6975 114.599 22.6315C114.385 22.5565 114.199 22.4695 114.042 22.3695C113.886 22.2615 113.808 22.1455 113.808 22.0205V21.9085Z" fill="white"/>
  </g>
  <defs>
    <clipPath id="clip0_644_403">
      <rect width="119" height="25" fill="white" transform="translate(0.0634766 -0.224518)"/>
    </clipPath>
  </defs>
</svg>