<svg xmlns="http://www.w3.org/2000/svg" width="198" height="51" viewBox="0 0 198 51" fill="none">
  <path fill-rule="evenodd" clip-rule="evenodd" d="M17.5061 34.7752C22.047 34.3037 25.5875 30.4651 25.5875 25.7996C25.5875 20.8157 21.5472 16.7754 16.5633 16.7754C11.5794 16.7754 7.53906 20.8157 7.53906 25.7996C7.53906 30.0361 10.4584 33.5907 14.395 34.5616V28.1038H12.796V25.554H14.395V23.9768C14.395 21.8165 15.4104 20.6064 17.9597 20.6064C18.8453 20.6064 19.4936 20.736 20.3361 20.9089L19.9476 23.3504C19.5155 23.264 18.9318 23.1994 18.5647 23.1994C17.5707 23.1994 17.5061 23.6316 17.5061 24.3231V25.554H19.9908L19.7743 28.1038H17.5061V34.7752Z" fill="white" fill-opacity="0.4"/>
  <path fill-rule="evenodd" clip-rule="evenodd" d="M51.6676 19.3856C51.6676 20.3647 50.9222 21.157 49.7564 21.157C48.636 21.157 47.8906 20.3647 47.9136 19.3856C47.8906 18.359 48.636 17.5898 49.7787 17.5898C50.9221 17.5898 51.6453 18.359 51.6676 19.3856ZM48.0074 33.9604V22.5564H51.5515V33.9596L48.0074 33.9604Z" fill="white" fill-opacity="0.4"/>
  <path fill-rule="evenodd" clip-rule="evenodd" d="M54.3926 26.1956C54.3926 24.7732 54.3457 23.5606 54.2988 22.5577H57.3773L57.5409 24.12H57.6109C58.0773 23.3969 59.2431 22.3018 61.132 22.3018C63.4636 22.3018 65.2126 23.841 65.2126 27.1978V33.9617H61.6684V27.6419C61.6684 26.1718 61.1558 25.1697 59.8732 25.1697C58.8935 25.1697 58.3109 25.846 58.0781 26.4984C57.9843 26.732 57.9382 27.0579 57.9382 27.3852V33.9617H54.394V26.1956H54.3926Z" fill="white" fill-opacity="0.4"/>
  <path fill-rule="evenodd" clip-rule="evenodd" d="M88.0928 20.5402C88.0928 18.7533 89.5414 17.3047 91.3283 17.3047H101.799C103.586 17.3047 105.034 18.7533 105.034 20.5402V31.0112C105.034 32.7981 103.586 34.2467 101.799 34.2467H91.3283C89.5414 34.2467 88.0928 32.7981 88.0928 31.0112V20.5402ZM100.094 25.7753C100.094 27.7247 98.5133 29.3049 96.564 29.3049C94.6146 29.3049 93.0344 27.7247 93.0344 25.7753C93.0344 23.826 94.6146 22.2458 96.564 22.2458C98.5133 22.2458 100.094 23.826 100.094 25.7753ZM101.858 21.5406C102.443 21.5406 102.917 21.0666 102.917 20.4818C102.917 19.897 102.443 19.4229 101.858 19.4229C101.273 19.4229 100.799 19.897 100.799 20.4818C100.799 21.0666 101.273 21.5406 101.858 21.5406Z" fill="white" fill-opacity="0.4"/>
  <path fill-rule="evenodd" clip-rule="evenodd" d="M145.496 20.235C144.84 20.5268 144.133 20.7233 143.392 20.812C144.148 20.3583 144.729 19.6402 145.003 18.7846C144.295 19.2049 143.51 19.5092 142.676 19.6741C142.007 18.962 141.054 18.5166 140.001 18.5166C137.977 18.5166 136.336 20.1576 136.336 22.1815C136.336 22.4685 136.368 22.7483 136.431 23.0169C133.385 22.8644 130.685 21.405 128.877 19.1877C128.561 19.7289 128.381 20.3583 128.381 21.0299C128.381 22.3012 129.027 23.4229 130.011 24.0803C129.41 24.0612 128.845 23.8963 128.35 23.6218V23.6677C128.35 25.4438 129.615 26.9246 131.29 27.2623C130.983 27.3456 130.659 27.3909 130.325 27.3909C130.088 27.3909 129.859 27.3676 129.635 27.3248C130.101 28.7806 131.455 29.8405 133.058 29.8702C131.805 30.8527 130.224 31.4392 128.507 31.4392C128.211 31.4392 127.919 31.4219 127.632 31.3874C129.254 32.427 131.181 33.0343 133.25 33.0343C139.991 33.0343 143.677 27.4498 143.677 22.6072C143.677 22.4482 143.674 22.2898 143.667 22.1332C144.384 21.6152 145.005 20.9698 145.496 20.235Z" fill="white" fill-opacity="0.4"/>
</svg>